<svg width="169" height="24" viewBox="0 0 169 24" fill="none" xmlns="http://www.w3.org/2000/svg">
<path d="M0 24V5.37793H4.0669V7.43814C5.20848 5.8863 6.69789 5.11038 8.53513 5.11038C10.3189 5.11038 11.8529 5.77927 13.1371 7.11707C14.4214 8.45486 15.0636 10.2743 15.0636 12.5753C15.0636 14.8584 14.4214 16.6689 13.1371 18.0067C11.8707 19.3267 10.3367 19.9867 8.53513 19.9867C6.7514 19.9867 5.26199 19.2732 4.0669 17.8462V24H0ZM5.00335 15.4381C5.68117 16.1695 6.5106 16.5351 7.49165 16.5351C8.4727 16.5351 9.30213 16.1695 9.97995 15.4381C10.6578 14.689 10.9967 13.7169 10.9967 12.5218C10.9967 11.3623 10.6578 10.417 9.97995 9.68563C9.30213 8.93647 8.4727 8.56188 7.49165 8.56188C6.5106 8.56188 5.68117 8.93647 5.00335 9.68563C4.34337 10.417 4.01338 11.3802 4.01338 12.5753C4.01338 13.7347 4.34337 14.689 5.00335 15.4381Z" fill="white"/>
<path d="M18.055 19.7191V5.37793H22.1219V8.26757C23.0494 6.07359 24.5745 5.02119 26.6972 5.11038V9.36456H26.4831C25.0918 9.36456 24.0126 9.79266 23.2456 10.6488C22.4965 11.4872 22.1219 12.7447 22.1219 14.4214V19.7191H18.055Z" fill="white"/>
<path d="M41.4215 17.8729C39.941 19.3178 38.0948 20.0402 35.883 20.0402C33.6712 20.0402 31.825 19.3267 30.3445 17.8997C28.8819 16.4549 28.1505 14.6801 28.1505 12.5753C28.1505 10.4883 28.8908 8.72242 30.3713 7.2776C31.8696 5.83279 33.7247 5.11038 35.9365 5.11038C38.1483 5.11038 39.9856 5.83279 41.4482 7.2776C42.9287 8.70458 43.669 10.4705 43.669 12.5753C43.669 14.6622 42.9198 16.4281 41.4215 17.8729ZM35.9365 16.5351C37.0603 16.5351 37.961 16.1606 38.6388 15.4114C39.3167 14.6444 39.6556 13.699 39.6556 12.5753C39.6556 11.4872 39.2988 10.5597 38.5853 9.79266C37.8897 9.00782 36.9889 8.6154 35.883 8.6154C34.7592 8.6154 33.8585 8.9989 33.1806 9.7659C32.5028 10.5151 32.1639 11.4515 32.1639 12.5753C32.1639 13.6633 32.5117 14.5998 33.2074 15.3846C33.9209 16.1516 34.8306 16.5351 35.9365 16.5351Z" fill="white"/>
<path d="M47.3094 19.7191V8.8562H45.6238V5.51171H47.3094V4.60201C47.3094 3.05017 47.6929 1.89075 48.4599 1.12375C49.2091 0.374582 50.3061 0 51.7509 0C52.839 0 53.8022 0.133779 54.6405 0.401338V3.77258C53.9984 3.5407 53.383 3.42475 52.7944 3.42475C51.8133 3.42475 51.3228 3.94204 51.3228 4.9766V5.53847H54.6138V8.8562H51.3763V19.7191H47.3094Z" fill="white"/>
<path fill-rule="evenodd" clip-rule="evenodd" d="M65.0693 7.67884C66.1248 7.67884 66.9805 6.8232 66.9805 5.76771C66.9805 4.71222 66.1248 3.85657 65.0693 3.85657C64.0139 3.85657 63.1582 4.71222 63.1582 5.76771C63.1582 6.8232 64.0139 7.67884 65.0693 7.67884ZM65.0693 11.5011C68.2358 11.5011 70.8027 8.93418 70.8027 5.76771C70.8027 2.60123 68.2358 0.0343018 65.0693 0.0343018C61.9029 0.0343018 59.3359 2.60123 59.3359 5.76771C59.3359 8.93418 61.9029 11.5011 65.0693 11.5011Z" fill="white"/>
<path d="M79.3926 20.0401C77.2522 20.0401 75.4684 19.3177 74.0414 17.8729C72.6323 16.4281 71.9277 14.6622 71.9277 12.5752C71.9277 10.5061 72.6412 8.74915 74.0682 7.30433C75.4952 5.84168 77.2878 5.11035 79.4461 5.11035C81.7471 5.11035 83.6468 5.9487 85.1451 7.62541L82.7639 10.0334C81.765 9.08806 80.6502 8.61537 79.4194 8.61537C78.4205 8.61537 77.5911 8.99887 76.9311 9.76588C76.2711 10.5329 75.9411 11.4693 75.9411 12.5752C75.9411 13.699 76.2711 14.6444 76.9311 15.4114C77.6089 16.1605 78.4918 16.5351 79.5799 16.5351C80.7037 16.5351 81.8007 16.0268 82.8709 15.01L85.2522 17.4181C84.4673 18.2742 83.629 18.9253 82.7371 19.3712C81.8453 19.8172 80.7304 20.0401 79.3926 20.0401Z" fill="white"/>
<path d="M94.7047 20.0401C92.5286 20.0401 90.7359 19.3534 89.3268 17.9799C87.9177 16.5886 87.2131 14.7871 87.2131 12.5752C87.2131 10.4883 87.882 8.7224 89.2198 7.27758C90.5576 5.83276 92.2521 5.11035 94.3034 5.11035C96.5687 5.11035 98.2989 5.85952 99.494 7.35785C100.689 8.85617 101.287 10.7023 101.287 12.8963C101.287 13.1104 101.269 13.4671 101.233 13.9665H91.2532C91.4494 14.8763 91.8508 15.5719 92.4572 16.0535C93.0637 16.5351 93.8307 16.7759 94.7582 16.7759C96.0247 16.7759 97.1841 16.2854 98.2365 15.3043L100.564 17.3645C99.1195 19.1483 97.1663 20.0401 94.7047 20.0401ZM91.1997 11.4247H97.3268C97.2019 10.4972 96.872 9.75696 96.3368 9.204C95.8196 8.65105 95.1417 8.37457 94.3034 8.37457C93.4829 8.37457 92.7961 8.65105 92.2432 9.204C91.7081 9.73912 91.3602 10.4794 91.1997 11.4247Z" fill="white"/>
<path d="M104.318 24V5.37791H108.385V7.43811C109.526 5.88627 111.016 5.11035 112.853 5.11035C114.636 5.11035 116.17 5.77925 117.455 7.11704C118.739 8.45484 119.381 10.2742 119.381 12.5752C119.381 14.8584 118.739 16.6689 117.455 18.0067C116.188 19.3266 114.654 19.9866 112.853 19.9866C111.069 19.9866 109.58 19.2731 108.385 17.8462V24H104.318ZM109.321 15.4381C109.999 16.1695 110.828 16.5351 111.809 16.5351C112.79 16.5351 113.62 16.1695 114.298 15.4381C114.975 14.689 115.314 13.7168 115.314 12.5217C115.314 11.3623 114.975 10.4169 114.298 9.68561C113.62 8.93644 112.79 8.56186 111.809 8.56186C110.828 8.56186 109.999 8.93644 109.321 9.68561C108.661 10.4169 108.331 11.3801 108.331 12.5752C108.331 13.7347 108.661 14.689 109.321 15.4381Z" fill="white"/>
<path d="M122.373 5.37791H130.239C131.702 5.37791 132.861 5.69898 133.717 6.34112C134.591 6.98326 135.028 7.85729 135.028 8.9632C135.028 10.4615 134.27 11.5407 132.754 12.2007C134.627 12.7715 135.563 13.9755 135.563 15.8127C135.563 17.0256 135.082 17.9799 134.118 18.6756C133.173 19.3712 131.871 19.7191 130.212 19.7191H122.373V5.37791ZM126.386 11.1304H129.249C129.802 11.1304 130.221 10.9966 130.506 10.7291C130.81 10.4615 130.961 10.1137 130.961 9.68561C130.961 9.31103 130.819 8.99887 130.533 8.74915C130.266 8.49943 129.855 8.37457 129.302 8.37457H126.386V11.1304ZM126.386 16.5351H129.597C130.827 16.5351 131.443 16.0535 131.443 15.0903C131.443 14.1628 130.792 13.699 129.49 13.699H126.386V16.5351Z" fill="white"/>
<path d="M151.767 5.37791V19.7191H147.834V11.3712L142.242 19.7191H138.416V5.37791H142.349V13.7525L147.941 5.37791H151.767Z" fill="white"/>
<path d="M162.169 20.0401C160.028 20.0401 158.244 19.3177 156.817 17.8729C155.408 16.4281 154.704 14.6622 154.704 12.5752C154.704 10.5061 155.417 8.74915 156.844 7.30433C158.271 5.84168 160.064 5.11035 162.222 5.11035C164.523 5.11035 166.423 5.9487 167.921 7.62541L165.54 10.0334C164.541 9.08806 163.426 8.61537 162.195 8.61537C161.197 8.61537 160.367 8.99887 159.707 9.76588C159.047 10.5329 158.717 11.4693 158.717 12.5752C158.717 13.699 159.047 14.6444 159.707 15.4114C160.385 16.1605 161.268 16.5351 162.356 16.5351C163.48 16.5351 164.577 16.0268 165.647 15.01L168.028 17.4181C167.243 18.2742 166.405 18.9253 165.513 19.3712C164.621 19.8172 163.506 20.0401 162.169 20.0401Z" fill="white"/>
</svg>
