<svg width="171" height="34" viewBox="0 0 171 34" fill="none" xmlns="http://www.w3.org/2000/svg">
<g clip-path="url(#clip0_5963_12926)">
<path d="M53.6305 29.2905C52.2955 29.3145 50.9701 29.06 49.7389 28.5432C48.6372 28.0706 47.6504 27.3659 46.8456 26.4773C46.0426 25.577 45.4257 24.5265 45.0307 23.3865C44.6024 22.1564 44.3893 20.8616 44.4008 19.5591C44.39 18.2357 44.6029 16.9199 45.0307 15.6675C45.4231 14.5071 46.0398 13.4352 46.8456 12.5127C47.6463 11.6103 48.6336 10.8927 49.7389 10.4094C51.9037 9.51533 54.3125 9.40396 56.5505 10.0945C57.4505 10.3773 58.2929 10.8183 59.0381 11.397C59.7745 11.9813 60.3862 12.7074 60.837 13.5323C61.328 14.4264 61.6331 15.4105 61.7339 16.4255H57.7356C57.6692 15.9631 57.5074 15.5196 57.2605 15.123C57.0149 14.7271 56.7045 14.3752 56.3423 14.0821C55.9693 13.7666 55.545 13.5174 55.0878 13.3454C54.6202 13.1782 54.1271 13.0933 53.6305 13.0945C52.8077 13.0665 51.9916 13.2503 51.2603 13.6283C50.6164 13.9726 50.0666 14.4693 49.6589 15.075C49.2449 15.7058 48.9467 16.4054 48.7781 17.1409C48.6048 17.9349 48.5259 18.7465 48.5432 19.5591C48.5352 20.3426 48.623 21.1243 48.8048 21.8865C48.9766 22.6043 49.2749 23.2857 49.6856 23.899C50.0958 24.4998 50.6452 24.9924 51.287 25.335C52.0183 25.713 52.8344 25.8968 53.6572 25.8688C54.2044 25.899 54.7516 25.8112 55.2619 25.6113C55.7721 25.4115 56.2335 25.1042 56.6145 24.7104C57.3622 23.8569 57.8184 22.7873 57.9171 21.657H61.8887C61.8064 22.7642 61.5299 23.8484 61.0719 24.8599C60.6516 25.7527 60.0624 26.5557 59.337 27.2247C58.6067 27.8983 57.7479 28.4176 56.812 28.7514C55.7913 29.1162 54.7144 29.2987 53.6305 29.2905Z" fill="#194A81"/>
<path d="M62.1089 25.3988H63.7103C64.2546 24.6622 64.7013 23.8584 65.0395 23.0073C65.3959 22.0982 65.6606 21.1558 65.8296 20.1941C66.0229 19.098 66.1459 17.9908 66.1979 16.8791C66.2584 15.6869 66.2887 14.3986 66.2887 13.0142V10.0942H79.9117V25.3988H81.9616V33.1605H78.2249V28.89H65.8403V33.1605H62.1035L62.1089 25.3988ZM75.7586 25.3988V13.484H70.2069V13.8256C70.2069 15.1068 70.1766 16.2901 70.1161 17.3755C70.0556 18.4609 69.9507 19.4734 69.8012 20.4129C69.6634 21.3059 69.4527 22.1861 69.1713 23.0447C68.8989 23.8603 68.5504 24.6485 68.1303 25.3988H75.7586Z" fill="#194A81"/>
<path d="M83.6317 10.0942H89.4449L93.8383 23.0073H93.8917L98.0448 10.0942H103.858V28.8739H99.9932V15.5605H99.9398L95.3383 28.8686H92.1354L87.5499 15.694H87.5125V28.8739H83.6477L83.6317 10.0942Z" fill="#194A81"/>
<path d="M105.887 10.0942H118.853V11.621H107.675V18.0268H114.737C116.492 18.0268 117.86 18.509 118.842 19.4734C119.346 19.9998 119.736 20.6238 119.99 21.3068C120.243 21.9898 120.354 22.7175 120.316 23.445C120.354 24.1725 120.243 24.9002 119.99 25.5832C119.736 26.2663 119.346 26.8902 118.842 27.4166C117.86 28.3811 116.492 28.8633 114.737 28.8633H105.876L105.887 10.0942ZM114.358 27.3472C115.471 27.4069 116.563 27.0338 117.406 26.3063C117.782 25.9353 118.074 25.489 118.265 24.9967C118.455 24.5045 118.539 23.9774 118.511 23.4504C118.539 22.9242 118.454 22.3982 118.264 21.9069C118.073 21.4156 117.781 20.9702 117.406 20.5998C116.556 19.8656 115.453 19.4922 114.332 19.5588H107.675V27.3472H114.358Z" fill="#194A81"/>
<path d="M127.613 10.0942H129.609L136.976 28.8739H135.054L132.764 23.034H124.223L121.96 28.8739H120.075L127.613 10.0942ZM132.161 21.5073L128.531 11.8985L124.794 21.5073H132.161Z" fill="#194A81"/>
<path d="M138.289 10.0942H140.078V18.2456H151.229V10.0942H153.017V28.8739H151.229V19.751H140.078V28.8259H138.289V10.0942Z" fill="#194A81"/>
<path d="M154.966 10.0942H156.754V20.1941L167.671 10.0942H170.089L161.713 17.8506L170.5 28.8686H168.183L160.357 19.0891L156.754 22.4201V28.8739H154.966V10.0942Z" fill="#194A81"/>
<path d="M0.5 26.1248L6.06239 29.8615C9.31869 29.2583 23.198 26.3863 23.198 21.4966C23.198 17.8293 19.1303 15.3897 15.5377 13.2384C12.6711 11.5195 10.1995 10.0355 10.1995 8.19917C10.1995 6.21871 11.9237 4.59057 15.1854 3.49625C15.9127 3.25506 16.6522 3.05193 17.4007 2.8877C14.422 3.2934 8.85961 4.54253 8.85961 8.27392C8.85961 13.5107 20.326 15.4911 20.326 20.9147C20.3207 25.1692 0.5 26.1248 0.5 26.1248Z" fill="#194A81"/>
<path d="M12.0043 7.94834C12.0043 5.4821 14.7214 4.04613 16.8727 3.21338C14.0488 3.87531 10.5203 5.34865 10.5203 8.20457C10.5203 9.85407 12.9224 11.2954 15.709 12.9609C19.3763 15.1602 23.5294 17.6478 23.5294 21.502C23.5294 23.9522 20.4706 26.1782 14.4545 28.1266C11.827 28.9504 9.15331 29.6188 6.44727 30.1285L10.9366 33.1552C10.9366 33.1552 26.1238 28.7245 26.1238 22.4949C26.1238 12.3096 12.0043 11.4288 12.0043 7.94834Z" fill="#194A81"/>
<path d="M26.0853 5.53046C26.0853 6.23835 25.8041 6.91724 25.3036 7.41779C24.803 7.91834 24.1241 8.19955 23.4162 8.19955H22.6422V9.48605H23.4536C24.4991 9.48605 25.5019 9.0707 26.2412 8.33139C26.9805 7.59208 27.3958 6.58935 27.3958 5.54381C27.3958 4.49826 26.9805 3.49553 26.2412 2.75622C25.5019 2.0169 24.4991 1.60156 23.4536 1.60156H19.498V11.0661H20.7845V7.20665V2.88272H23.4536C24.1513 2.89247 24.8175 3.17506 25.3094 3.66996C25.8013 4.16485 26.0798 4.8327 26.0853 5.53046Z" fill="#194A81"/>
<path d="M23.4542 0H17.9025V11.066H19.1837V1.2865H23.4542C24.5077 1.39225 25.4844 1.88556 26.1947 2.67072C26.905 3.45589 27.2983 4.47691 27.2983 5.53569C27.2983 6.59446 26.905 7.61549 26.1947 8.40065C25.4844 9.18582 24.5077 9.67913 23.4542 9.78488H22.6428V11.0714H23.4542C24.1812 11.0714 24.901 10.9282 25.5727 10.65C26.2443 10.3718 26.8545 9.96405 27.3686 9.45001C27.8826 8.93598 28.2904 8.32573 28.5686 7.6541C28.8468 6.98248 28.9899 6.26265 28.9899 5.53569C28.9899 4.80873 28.8468 4.08889 28.5686 3.41727C28.2904 2.74565 27.8826 2.1354 27.3686 1.62137C26.8545 1.10733 26.2443 0.699574 25.5727 0.421379C24.901 0.143185 24.1812 -1.08325e-08 23.4542 0Z" fill="#194A81"/>
<path d="M33.2441 19.5642V12.71C33.2538 12.0337 33.0032 11.3796 32.5442 10.8828C32.0852 10.3861 31.4528 10.0846 30.7779 10.0409C30.4341 10.0297 30.0915 10.0878 29.7706 10.2116C29.4496 10.3354 29.1568 10.5224 28.9095 10.7616C28.6564 11.005 28.4546 11.2967 28.3161 11.6194C28.1777 11.9422 28.1054 12.2894 28.1035 12.6406V19.5802H29.4167V12.6406C29.4174 12.4657 29.4545 12.2929 29.5257 12.1331C29.5969 11.9733 29.7005 11.8301 29.8301 11.7126C29.9597 11.5951 30.1123 11.5059 30.2782 11.4506C30.4441 11.3953 30.6198 11.3752 30.7939 11.3915C31.1091 11.4271 31.3998 11.5784 31.6098 11.8161C31.8199 12.0537 31.9343 12.3608 31.9309 12.678V19.6176L33.2441 19.5642Z" fill="#194A81"/>
<path d="M38.6993 19.5644V12.7102C38.7005 12.0397 38.4451 11.3941 37.9856 10.9057C37.526 10.4174 36.8971 10.1233 36.2277 10.0838C35.8823 10.0709 35.5378 10.1277 35.2148 10.2509C34.8918 10.3741 34.597 10.5611 34.3478 10.8008C34.0987 11.0404 33.9004 11.3278 33.7648 11.6458C33.6293 11.9638 33.5591 12.3058 33.5586 12.6515V19.5911H34.8772V12.6515C34.8709 12.4716 34.9032 12.2924 34.972 12.1261C35.0408 11.9597 35.1445 11.81 35.276 11.6871C35.4075 11.5642 35.5639 11.4709 35.7345 11.4135C35.9051 11.3561 36.086 11.3359 36.2651 11.3543C36.5803 11.39 36.871 11.5413 37.081 11.7789C37.2911 12.0166 37.4055 12.3237 37.4021 12.6408V19.5804L38.6993 19.5644Z" fill="#194A81"/>
<path d="M36.2082 8.49852C35.1797 8.47642 34.1795 8.83582 33.4003 9.50743C32.6208 8.83627 31.6208 8.47693 30.5924 8.49852C29.4868 8.53862 28.4399 9.0062 27.6722 9.80277C26.9045 10.5993 26.4759 11.6628 26.4766 12.7691V19.5646H27.7898V12.7157C27.7862 11.9586 28.0752 11.2294 28.5964 10.6804C29.1177 10.1313 29.8308 9.80479 30.5871 9.76901C31.1383 9.75382 31.6824 9.8965 32.1553 10.1802C32.6282 10.464 33.0101 10.8769 33.2562 11.3705L33.411 11.6801L33.5658 11.3705C33.8535 10.7901 34.329 10.3241 34.9151 10.0481C35.5011 9.77207 36.1633 9.70229 36.794 9.85007C37.4247 9.99785 37.9869 10.3545 38.3893 10.8621C38.7917 11.3697 39.0107 11.9985 39.0107 12.6463V19.5859H40.3239V12.7744C40.326 11.6672 39.898 10.6024 39.1302 9.80469C38.3623 9.00697 37.3147 8.53865 36.2082 8.49852Z" fill="#194A81"/>
</g>
<defs>
<clipPath id="clip0_5963_12926">
<rect width="171" height="34" fill="white"/>
</clipPath>
</defs>
</svg>
