<svg width="41" height="50" viewBox="0 0 41 50" fill="none" xmlns="http://www.w3.org/2000/svg">
<path fill-rule="evenodd" clip-rule="evenodd" d="M19.7831 0.185387C19.5728 0.286862 19.0351 0.709286 18.5882 1.12418C15.9268 3.59489 12.9891 5.26073 9.54441 6.25242C7.58762 6.81581 4.63409 7.22504 2.4517 7.23511C1.09361 7.24137 0.612494 7.46035 0.20546 8.2573C0.00853849 8.64277 0.00567059 8.746 0.000508573 15.4916C-0.00503581 22.9001 0.0252669 23.507 0.579036 27.0762C2.30525 38.2018 8.20773 45.4238 18.9639 49.5711C20.5589 50.1861 20.5355 50.188 22.8256 49.2598C25.9179 48.0065 28.8894 46.2734 31.1809 44.3866C32.4229 43.364 34.3989 41.2744 35.3652 39.9622C37.9599 36.4382 39.5896 32.261 40.4308 26.9785C40.97 23.592 41.0051 22.8823 40.9995 15.4916C40.9944 8.66691 40.9938 8.64727 40.7871 8.24214C40.5372 7.75236 40.1907 7.45742 39.7256 7.33864C39.5353 7.29005 38.6698 7.22553 37.8023 7.19522C31.6129 6.97888 26.5199 4.96999 22.4119 1.12438C21.2125 0.00159622 20.6099 -0.213673 19.7831 0.185387Z" fill="#14CF93"/>
<path d="M14.125 24.375L19.125 29.375L27.875 20.625" stroke="white" stroke-width="2" stroke-linecap="round" stroke-linejoin="round"/>
</svg>
