<svg width="28" height="28" viewBox="0 0 28 28" fill="none" xmlns="http://www.w3.org/2000/svg">
<path d="M6.29289 6.2929C6.68341 5.90238 7.31659 5.90238 7.7071 6.2929L21.8492 20.435C22.2398 20.8256 22.2398 21.4587 21.8492 21.8492C21.4587 22.2398 20.8255 22.2398 20.435 21.8492L6.29289 7.70711C5.90237 7.31659 5.90237 6.68342 6.29289 6.2929Z" fill="currentColor"/>
<path d="M6.29291 21.8492C6.68344 22.2398 7.31661 22.2398 7.70713 21.8492L21.8493 7.7071C22.2398 7.31659 22.2398 6.68341 21.8493 6.29289C21.4587 5.90237 20.8256 5.90237 20.435 6.29289L6.29291 20.435C5.9024 20.8255 5.90239 21.4587 6.29291 21.8492Z" fill="currentColor"/>
</svg>
