<svg width="32" height="24" viewBox="0 0 32 24" fill="none" xmlns="http://www.w3.org/2000/svg">
<g clip-path="url(#clip0_5963_13043)">
<path fill-rule="evenodd" clip-rule="evenodd" d="M2 17C1.44772 17 1 17.4477 1 18C1 18.5523 1.44772 19 2 19L30 19C30.5523 19 31 18.5523 31 18C31 17.4477 30.5523 17 30 17L2 17ZM1 12C1 11.4477 1.44772 11 2 11L30 11C30.5523 11 31 11.4477 31 12C31 12.5523 30.5523 13 30 13L2 13C1.44772 13 1 12.5523 1 12ZM1 6C1 5.44771 1.44772 5 2 5L30 5C30.5523 5 31 5.44772 31 6C31 6.55229 30.5523 7 30 7L2 7C1.44772 7 1 6.55228 1 6Z" fill="currentColor"/>
</g>
<defs>
<clipPath id="clip0_5963_13043">
<rect width="24" height="32" fill="white" transform="translate(0 24) rotate(-90)"/>
</clipPath>
</defs>
</svg>
