<svg width="169" height="24" fill="none" xmlns="http://www.w3.org/2000/svg"><path d="M0 24V5.378h4.067v2.06C5.208 5.886 6.697 5.11 8.535 5.11c1.784 0 3.318.67 4.602 2.007 1.284 1.338 1.927 3.157 1.927 5.458 0 2.283-.643 4.094-1.927 5.432-1.266 1.32-2.8 1.98-4.602 1.98-1.784 0-3.273-.714-4.468-2.14V24H0zm5.003-8.562c.678.731 1.508 1.097 2.489 1.097.98 0 1.81-.366 2.488-1.097.678-.749 1.017-1.721 1.017-2.916 0-1.16-.34-2.105-1.017-2.836-.678-.75-1.507-1.124-2.488-1.124-.981 0-1.81.374-2.489 1.124-.66.731-.99 1.694-.99 2.89 0 1.159.33 2.113.99 2.862zm13.052 4.282V5.377h4.067v2.89c.927-2.194 2.453-3.247 4.575-3.158v4.255h-.214c-1.391 0-2.47.428-3.237 1.284-.75.838-1.124 2.096-1.124 3.772v5.298h-4.067zm23.367-1.847c-1.481 1.445-3.327 2.167-5.539 2.167-2.212 0-4.058-.713-5.539-2.14-1.462-1.445-2.194-3.22-2.194-5.325 0-2.087.74-3.853 2.221-5.297 1.499-1.445 3.354-2.168 5.566-2.168 2.211 0 4.049.723 5.511 2.168 1.48 1.427 2.221 3.192 2.221 5.297 0 2.087-.75 3.853-2.247 5.298zm-5.485-1.338c1.123 0 2.024-.374 2.702-1.124.678-.767 1.017-1.712 1.017-2.836 0-1.088-.357-2.015-1.07-2.782-.696-.785-1.597-1.178-2.703-1.178-1.124 0-2.025.384-2.702 1.15-.678.75-1.017 1.686-1.017 2.81 0 1.088.348 2.025 1.043 2.81.714.767 1.624 1.15 2.73 1.15zM47.31 19.72V8.855h-1.686V5.512h1.685v-.91c0-1.552.384-2.711 1.15-3.478C49.21.374 50.307 0 51.752 0c1.088 0 2.051.134 2.89.401v3.372a5.43 5.43 0 00-1.847-.348c-.98 0-1.471.517-1.471 1.552v.561h3.29v3.318h-3.237V19.72H47.31z" fill="#101111"/><path fill-rule="evenodd" clip-rule="evenodd" d="M65.07 7.679a1.911 1.911 0 100-3.822 1.911 1.911 0 000 3.822zm0 3.822a5.733 5.733 0 100-11.467 5.733 5.733 0 000 11.467z" fill="#14CF93"/><path d="M79.393 20.04c-2.14 0-3.925-.722-5.352-2.167-1.409-1.445-2.113-3.21-2.113-5.298 0-2.069.713-3.826 2.14-5.27 1.427-1.463 3.22-2.195 5.378-2.195 2.301 0 4.2.839 5.7 2.515l-2.382 2.408c-.999-.945-2.114-1.418-3.345-1.418-.998 0-1.828.384-2.488 1.15-.66.768-.99 1.704-.99 2.81 0 1.124.33 2.07.99 2.836.678.75 1.56 1.124 2.649 1.124 1.124 0 2.22-.508 3.29-1.525l2.382 2.408c-.785.856-1.623 1.507-2.515 1.953-.892.446-2.007.67-3.344.67zm15.312 0c-2.176 0-3.97-.687-5.378-2.06-1.41-1.391-2.114-3.193-2.114-5.405 0-2.087.669-3.853 2.007-5.297 1.338-1.445 3.032-2.168 5.083-2.168 2.266 0 3.996.75 5.191 2.248 1.195 1.498 1.793 3.344 1.793 5.538 0 .214-.018.571-.054 1.07h-9.98c.196.91.598 1.606 1.204 2.088.607.481 1.374.722 2.301.722 1.267 0 2.426-.49 3.479-1.472l2.327 2.06c-1.444 1.784-3.398 2.676-5.86 2.676zM91.2 11.425h6.127c-.125-.928-.455-1.668-.99-2.221-.517-.553-1.195-.83-2.034-.83-.82 0-1.507.277-2.06.83-.535.535-.883 1.275-1.043 2.22zM104.318 24V5.378h4.067v2.06c1.141-1.552 2.631-2.328 4.468-2.328 1.783 0 3.317.67 4.602 2.007 1.284 1.338 1.926 3.157 1.926 5.458 0 2.283-.642 4.094-1.926 5.432-1.267 1.32-2.801 1.98-4.602 1.98-1.784 0-3.273-.714-4.468-2.14V24h-4.067zm5.003-8.562c.678.731 1.507 1.097 2.488 1.097.981 0 1.811-.366 2.489-1.097.677-.749 1.016-1.721 1.016-2.916 0-1.16-.339-2.105-1.016-2.836-.678-.75-1.508-1.124-2.489-1.124-.981 0-1.81.374-2.488 1.124-.66.73-.99 1.694-.99 2.89 0 1.159.33 2.113.99 2.862zm13.052-10.06h7.866c1.463 0 2.622.321 3.478.963.874.642 1.311 1.516 1.311 2.622 0 1.498-.758 2.578-2.274 3.238 1.873.57 2.809 1.774 2.809 3.612 0 1.213-.481 2.167-1.445 2.863-.945.695-2.247 1.043-3.906 1.043h-7.839V5.378zm4.013 5.752h2.863c.553 0 .972-.133 1.257-.4.304-.269.455-.616.455-1.044 0-.375-.142-.687-.428-.937-.267-.25-.678-.374-1.231-.374h-2.916v2.755zm0 5.405h3.211c1.23 0 1.846-.482 1.846-1.445 0-.927-.651-1.391-1.953-1.391h-3.104v2.836zm25.381-11.157v14.341h-3.933v-8.348l-5.592 8.348h-3.826V5.378h3.933v8.374l5.592-8.374h3.826zm10.402 14.662c-2.141 0-3.925-.722-5.352-2.167-1.409-1.445-2.113-3.21-2.113-5.298 0-2.069.713-3.826 2.14-5.27 1.427-1.463 3.22-2.195 5.378-2.195 2.301 0 4.201.839 5.699 2.515l-2.381 2.408c-.999-.945-2.114-1.418-3.345-1.418-.998 0-1.828.384-2.488 1.15-.66.768-.99 1.704-.99 2.81 0 1.124.33 2.07.99 2.836.678.75 1.561 1.124 2.649 1.124 1.124 0 2.221-.508 3.291-1.525l2.381 2.408c-.785.856-1.623 1.507-2.515 1.953-.892.446-2.007.67-3.344.67z" fill="#14CF93"/></svg>