<svg width="171" height="34" fill="none" xmlns="http://www.w3.org/2000/svg"><g clip-path="url(#clip0_5963_12926)" fill="#194A81"><path d="M53.63 29.29a9.609 9.609 0 01-3.891-.747 8.34 8.34 0 01-2.893-2.066 9.138 9.138 0 01-1.815-3.09 11.336 11.336 0 01-.63-3.828c-.011-1.323.202-2.64.63-3.892a9.347 9.347 0 011.815-3.154 8.33 8.33 0 012.893-2.104 10.068 10.068 0 016.812-.315c.9.283 1.742.724 2.487 1.303a7.028 7.028 0 011.799 2.135 7.57 7.57 0 01.897 2.893h-3.998a3.371 3.371 0 00-.475-1.302 4.16 4.16 0 00-.919-1.04 4.272 4.272 0 00-1.254-.738 4.298 4.298 0 00-1.458-.25 4.806 4.806 0 00-2.37.533 4.473 4.473 0 00-1.601 1.447 6.352 6.352 0 00-.88 2.066 10.31 10.31 0 00-.236 2.418 9.61 9.61 0 00.262 2.328c.172.717.47 1.399.88 2.012.41.6.96 1.093 1.602 1.436a4.806 4.806 0 002.37.534 3.822 3.822 0 002.958-1.159 5.339 5.339 0 001.302-3.053h3.972a9.466 9.466 0 01-.817 3.203 7.649 7.649 0 01-1.735 2.365 7.382 7.382 0 01-2.525 1.526 9.245 9.245 0 01-3.181.54zm8.479-3.891h1.601c.545-.737.991-1.54 1.33-2.392.356-.909.62-1.851.79-2.813.193-1.096.316-2.203.368-3.315.06-1.192.09-2.48.09-3.865v-2.92h13.624V25.4h2.05v7.761h-3.737v-4.27H65.84v4.27h-3.737l.006-7.761zm13.65 0V13.484h-5.552v.342c0 1.28-.03 2.464-.09 3.55a29.998 29.998 0 01-.316 3.037 16.559 16.559 0 01-.63 2.632c-.272.815-.62 1.603-1.04 2.354h7.628zm7.873-15.305h5.813l4.393 12.913h.054l4.153-12.913h5.813v18.78h-3.865V15.56h-.053l-4.602 13.308h-3.203L87.55 15.694h-.037v13.18h-3.865l-.016-18.78zm22.255 0h12.966v1.527h-11.178v6.406h7.062c1.755 0 3.123.482 4.105 1.446a5.343 5.343 0 011.474 3.972 5.342 5.342 0 01-1.474 3.972c-.982.964-2.35 1.446-4.105 1.446h-8.861l.011-18.769zm8.471 17.253a4.311 4.311 0 003.048-1.04 3.738 3.738 0 001.105-2.857 3.73 3.73 0 00-1.105-2.85 4.312 4.312 0 00-3.074-1.041h-6.657v7.788h6.683zm13.255-17.253h1.996l7.367 18.78h-1.922l-2.29-5.84h-8.541l-2.263 5.84h-1.885l7.538-18.78zm4.548 11.413l-3.63-9.609-3.737 9.61h7.367zm6.128-11.413h1.789v8.152h11.151v-8.152h1.788v18.78h-1.788V19.75h-11.151v9.075h-1.789V10.094zm16.677 0h1.788v10.1l10.917-10.1h2.418l-8.376 7.757 8.787 11.018h-2.317l-7.826-9.78-3.603 3.331v6.454h-1.788v-18.78zM.5 26.125l5.562 3.736c3.257-.603 17.136-3.475 17.136-8.364 0-3.668-4.068-6.107-7.66-8.259C12.67 11.52 10.2 10.036 10.2 8.2c0-1.98 1.724-3.608 4.985-4.703a22.054 22.054 0 012.216-.608c-2.979.405-8.541 1.655-8.541 5.386 0 5.237 11.466 7.217 11.466 12.64C20.321 25.17.5 26.125.5 26.125z"/><path d="M12.004 7.948c0-2.466 2.717-3.902 4.869-4.735-2.824.662-6.353 2.136-6.353 4.992 0 1.65 2.402 3.09 5.189 4.756 3.667 2.2 7.82 4.687 7.82 8.541 0 2.45-3.058 4.676-9.075 6.625a70.196 70.196 0 01-8.007 2.002l4.49 3.026s15.187-4.43 15.187-10.66c0-10.185-14.12-11.066-14.12-14.547z"/><path d="M26.085 5.53a2.67 2.67 0 01-2.669 2.67h-.774v1.286h.812a3.942 3.942 0 000-7.884h-3.956v9.464h1.287V2.883h2.669a2.67 2.67 0 012.631 2.647z"/><path d="M23.454 0h-5.552v11.066h1.282v-9.78h4.27a4.27 4.27 0 010 8.499h-.811v1.286h.811a5.536 5.536 0 000-11.071zm9.79 19.564V12.71a2.637 2.637 0 00-2.466-2.67 2.567 2.567 0 00-1.868.722 2.628 2.628 0 00-.806 1.879v6.94h1.313v-6.94a1.26 1.26 0 011.377-1.25 1.28 1.28 0 011.137 1.287v6.94l1.313-.054zm5.456 0V12.71a2.627 2.627 0 00-2.472-2.626 2.573 2.573 0 00-2.67 2.568v6.94h1.32v-6.94a1.26 1.26 0 011.387-1.298 1.281 1.281 0 011.137 1.287v6.94l1.297-.017z"/><path d="M36.208 8.499A4.164 4.164 0 0033.4 9.507 4.17 4.17 0 0030.592 8.5a4.27 4.27 0 00-4.115 4.27v6.796h1.313v-6.85a2.936 2.936 0 012.797-2.946 2.893 2.893 0 012.67 1.601l.154.31.155-.31a2.871 2.871 0 015.445 1.276v6.94h1.313v-6.812A4.27 4.27 0 0036.208 8.5z"/></g><defs><clipPath id="clip0_5963_12926"><path fill="#fff" d="M0 0h171v34H0z"/></clipPath></defs></svg>