<svg width="41" height="50" fill="none" xmlns="http://www.w3.org/2000/svg"><path fill-rule="evenodd" clip-rule="evenodd" d="M19.783.185c-.21.102-.748.524-1.195.94-2.661 2.47-5.599 4.136-9.044 5.127-1.956.564-4.91.973-7.092.983-1.358.006-1.84.225-2.247 1.022-.196.386-.2.489-.204 7.235-.006 7.408.024 8.015.578 11.584 1.726 11.126 7.629 18.348 18.385 22.495 1.595.615 1.572.617 3.862-.311 3.092-1.253 6.063-2.987 8.355-4.873 1.242-1.023 3.218-3.113 4.184-4.425 2.595-3.524 4.225-7.701 5.066-12.984.539-3.386.574-4.096.569-11.486-.006-6.825-.006-6.845-.213-7.25-.25-.49-.596-.785-1.061-.903-.19-.049-1.056-.113-1.924-.144-6.19-.216-11.282-2.225-15.39-6.07-1.2-1.123-1.802-1.339-2.629-.94z" fill="#14CF93"/><path d="M14.125 24.375l5 5 8.75-8.75" stroke="#fff" stroke-width="2" stroke-linecap="round" stroke-linejoin="round"/></svg>