<svg xmlns="http://www.w3.org/2000/svg" xmlns:xlink="http://www.w3.org/1999/xlink"><defs>
<clipPath id="clip0_5963_13043">
<rect width="24" height="32" fill="white" transform="translate(0 24) rotate(-90)"/>
</clipPath>
</defs><symbol id="close" viewBox="0 0 28 28">
<path d="M6.29289 6.2929C6.68341 5.90238 7.31659 5.90238 7.7071 6.2929L21.8492 20.435C22.2398 20.8256 22.2398 21.4587 21.8492 21.8492C21.4587 22.2398 20.8255 22.2398 20.435 21.8492L6.29289 7.70711C5.90237 7.31659 5.90237 6.68342 6.29289 6.2929Z" fill="currentColor"/>
<path d="M6.29291 21.8492C6.68344 22.2398 7.31661 22.2398 7.70713 21.8492L21.8493 7.7071C22.2398 7.31659 22.2398 6.68341 21.8493 6.29289C21.4587 5.90237 20.8256 5.90237 20.435 6.29289L6.29291 20.435C5.9024 20.8255 5.90239 21.4587 6.29291 21.8492Z" fill="currentColor"/>
</symbol><symbol id="menu-icon" viewBox="0 0 32 24">
<g clip-path="url(#clip0_5963_13043)">
<path fill-rule="evenodd" clip-rule="evenodd" d="M2 17C1.44772 17 1 17.4477 1 18C1 18.5523 1.44772 19 2 19L30 19C30.5523 19 31 18.5523 31 18C31 17.4477 30.5523 17 30 17L2 17ZM1 12C1 11.4477 1.44772 11 2 11L30 11C30.5523 11 31 11.4477 31 12C31 12.5523 30.5523 13 30 13L2 13C1.44772 13 1 12.5523 1 12ZM1 6C1 5.44771 1.44772 5 2 5L30 5C30.5523 5 31 5.44772 31 6C31 6.55229 30.5523 7 30 7L2 7C1.44772 7 1 6.55228 1 6Z" fill="currentColor"/>
</g>

</symbol></svg>